<?xml version="1.0" standalone="no"?>
<!DOCTYPE svg PUBLIC "-//W3C//DTD SVG 20010904//EN"
 "http://www.w3.org/TR/2001/REC-SVG-20010904/DTD/svg10.dtd">
<svg version="1.0" xmlns="http://www.w3.org/2000/svg"
 width="700.000000pt" height="700.000000pt" viewBox="0 0 700.000000 700.000000"
 preserveAspectRatio="xMidYMid meet">
<metadata>
Created by potrace 1.11, written by Peter Selinger 2001-2013
</metadata>
<g transform="translate(0.000000,700.000000) scale(0.100000,-0.100000)"
fill="#000000" stroke="none">
<path d="M3465 6273 c-109 -11 -187 -40 -260 -97 -22 -17 -698 -578 -1502
-1248 -896 -745 -1468 -1228 -1477 -1247 -21 -40 -20 -110 1 -141 31 -45 256
-304 281 -324 32 -25 102 -32 140 -14 22 11 2714 2248 2827 2349 20 18 41 1
1430 -1157 775 -647 1422 -1182 1439 -1191 37 -19 114 -13 147 12 24 18 191
215 262 308 32 42 37 56 37 101 0 37 -5 58 -18 72 -10 10 -219 187 -465 392
l-446 374 -3 856 c-3 831 -4 858 -23 886 -37 55 -47 56 -506 56 -353 0 -426
-2 -453 -15 -62 -30 -61 -20 -66 -482 l-5 -422 -495 411 c-272 226 -513 423
-535 437 -88 60 -214 94 -310 84z"/>
<path d="M2317 4243 l-1177 -968 3 -1010 c2 -826 5 -1017 16 -1047 25 -65 82
-131 140 -160 l55 -28 813 0 813 0 0 785 0 785 520 0 520 0 0 -785 0 -785 800
0 c776 0 801 1 853 20 69 26 126 75 157 136 l25 49 3 990 c2 545 0 1004 -3
1021 -5 27 -161 160 -1177 995 -645 530 -1175 965 -1178 967 -3 1 -536 -433
-1183 -965z"/>
</g>
</svg>
