<?xml version="1.0" encoding="utf-8"?>
<!-- Generator: Adobe Illustrator 16.0.0, SVG Export Plug-In . SVG Version: 6.00 Build 0)  -->
<!DOCTYPE svg PUBLIC "-//W3C//DTD SVG 1.1//EN" "http://www.w3.org/Graphics/SVG/1.1/DTD/svg11.dtd">
<svg version="1.1" xmlns="http://www.w3.org/2000/svg" xmlns:xlink="http://www.w3.org/1999/xlink" x="0px" y="0px" width="500px"
	 height="500px" viewBox="0 0 500 500" enable-background="new 0 0 500 500" xml:space="preserve">
<g id="Layer_1">
	<path fill="#010101" d="M418.204,267.941v139.67c0,5.237-1.916,9.596-5.763,13.093c-3.832,3.479-8.191,5.396-13.077,5.748H287.41
		V314.497h-74.817v111.955H100.629c-5.229,0-9.595-1.916-13.075-5.748c-3.49-3.831-5.413-8.208-5.756-13.093v-139.67
		c0-0.354,0-0.704,0-1.055c0-0.352,0-0.703,0-1.055l167.939-138.115l167.94,138.115
		C418.013,266.184,418.204,266.887,418.204,267.941z M483.075,247.535l-17.788,21.444c-1.739,1.738-3.847,2.793-6.272,3.145h-1.055
		c-2.442,0-4.533-0.527-6.273-1.564L249.737,102.083L47.79,270.559c-2.443,1.371-4.71,1.917-6.802,1.564
		c-2.442-0.352-4.534-1.406-6.282-3.145L16.4,247.535c-1.397-2.107-1.924-4.374-1.572-6.802c0.352-2.45,1.397-4.542,3.138-6.282
		L227.761,59.709c6.282-5.237,13.603-7.848,21.976-7.848c8.359,0,15.863,2.611,22.504,7.848l71.146,59.114V62.319
		c0-2.785,0.862-5.052,2.618-6.8c1.741-1.741,4.007-2.611,6.803-2.611h55.977c2.778,0,5.045,0.87,6.802,2.611
		c1.739,1.748,2.618,4.016,2.618,6.8v118.765l63.834,53.367c2.076,1.388,3.129,3.488,3.129,6.282
		C485.167,243.511,484.464,245.778,483.075,247.535z"/>
</g>
<g id="Layer_2">
	<path fill="#ED1F24" d="M483.075,247.535l-17.788,21.443c-1.739,1.738-3.847,2.793-6.272,3.145h-1.055
		c-2.442,0-4.533-0.527-6.273-1.564L249.737,102.083L47.79,270.559c-2.443,1.371-4.71,1.917-6.802,1.564
		c-2.442-0.352-4.534-1.406-6.282-3.145L16.4,247.535c-1.397-2.107-1.924-4.374-1.572-6.803c0.352-2.449,1.397-4.541,3.138-6.281
		L227.761,59.709c6.282-5.237,13.603-7.848,21.976-7.848c8.359,0,15.863,2.611,22.504,7.848l71.146,59.114V62.319
		c0-2.785,0.862-5.052,2.618-6.8c1.741-1.741,4.007-2.611,6.803-2.611h55.977c2.778,0,5.045,0.87,6.802,2.611
		c1.739,1.748,2.618,4.016,2.618,6.8v118.765l63.834,53.367c2.076,1.388,3.129,3.488,3.129,6.281
		C485.167,243.512,484.464,245.778,483.075,247.535z"/>
</g>
</svg>
